<?xml version="1.0" standalone="no"?>
<!DOCTYPE svg PUBLIC "-//W3C//DTD SVG 20010904//EN"
"http://www.w3.org/TR/2001/REC-SVG-20010904/DTD/svg10.dtd">
<svg viewBox="-233.05 -89.5 466.1 179.05"
xmlns="http://www.w3.org/2000/svg" xmlns:xlink="http://www.w3.org/1999/xlink">
<desc>Created by Action Script Viewer - http://www.buraks.com/asv</desc>
<g>
<path fill="none" stroke="#000000" stroke-width="0.01" stroke-opacity="1"
d="M233.05,-86.4 L231.95,-86.4 L231.95,-88.45 L230,-88.45 L230,-89.45 L232.05,-89.45 L232.05,-88.45 L233.05,-88.45 
L233.05,-86.4 M230,89.55 L230,88.5 L229.95,88.5 L229.95,87.55 L231,87.55 L231,86.55 L233,86.55 L233,88.55 L232,88.55 
L232,89.55 L230,89.55 M-227.95,-88.45 L-230.95,-88.45 L-230.95,-87.4 L-232,-87.4 L-232,-84.5 L-233.05,-84.5 
L-233.05,-88.5 L-232.05,-88.5 L-232.05,-88.45 L-232,-88.45 L-232,-89.5 L-227.95,-89.5 L-227.95,-88.45 M-231.95,84.35 
L-233.05,84.35 L-233.05,86.8 L-233,86.8 L-233,88.55 L-232,88.55 L-232,89.55 L-227.95,89.55 L-227.95,88.5 L-229.95,88.5 
L-229.95,87.55 L-231,87.55 L-231,86.55 L-231.95,86.55 L-231.95,84.35 "/>
</g>
</svg>

