<?xml version="1.0" standalone="no"?>
<!DOCTYPE svg PUBLIC "-//W3C//DTD SVG 20010904//EN"
"http://www.w3.org/TR/2001/REC-SVG-20010904/DTD/svg10.dtd">
<svg viewBox="-16 -16 32 32"
xmlns="http://www.w3.org/2000/svg" xmlns:xlink="http://www.w3.org/1999/xlink">
<desc>Created by Action Script Viewer - http://www.buraks.com/asv</desc>
<g>
<path fill="none" stroke="#000000" stroke-width="0.01" stroke-opacity="1"
d="M8.95,-13.45 L4.9,-6.45 L3.15,-7.45 L7.2,-14.45 L8.95,-13.45 M6.4,-4.85 L13.35,-8.9 L14.35,-7.15 L7.4,-3.15 
L6.4,-4.85 M16,-1 L16,1 L8,1 L8,-1 L16,-1 M1,-7.95 L-1,-7.95 L-1,-16 L1,-16 L1,-7.95 M13.35,8.95 L6.4,4.9 L7.4,3.2 
L14.35,7.2 L13.35,8.95 M4.9,6.45 L8.95,13.4 L7.2,14.4 L3.15,7.45 L4.9,6.45 M1,16 L-1,16 L-1,8 L1,8 L1,16 M-7.2,-14.3 
L-3.15,-7.35 L-4.9,-6.35 L-8.95,-13.3 L-7.2,-14.3 M-13.35,-8.85 L-6.4,-4.8 L-7.4,-3.1 L-14.35,-7.1 L-13.35,-8.85 
M-7.95,-1 L-7.95,1 L-16,1 L-16,-1 L-7.95,-1 M-3.15,7.4 L-7.2,14.4 L-8.95,13.4 L-4.9,6.45 L-3.15,7.4 M-6.4,4.85 
L-13.35,8.85 L-14.35,7.1 L-7.4,3.1 L-6.4,4.85 "/>
</g>
</svg>

