<?xml version="1.0" standalone="no"?>
<!DOCTYPE svg PUBLIC "-//W3C//DTD SVG 20010904//EN"
"http://www.w3.org/TR/2001/REC-SVG-20010904/DTD/svg10.dtd">
<svg viewBox="-16.75 -24.25 36 47.5"
xmlns="http://www.w3.org/2000/svg" xmlns:xlink="http://www.w3.org/1999/xlink">
<desc>Created by Action Script Viewer - http://www.buraks.com/asv</desc>
<g>
<path fill="none" stroke="#000000" stroke-width="0.01" stroke-opacity="1"
d="M12.3,-16.5 Q12.3,-17.75,12.45,-18.05 Q12.95,-19.25,15.5,-20 L15.65,-19.6 L15.75,-18.5 L15.25,-15.7 
Q14.75,-13.8,14.6,-12.7 L14.75,-8.75 L14.75,-6.1 Q14.4,-4.25,12.75,-4.25 Q11.3,-4.25,10.85,-6.75 L9,-2.85 
Q10.05,-2.15,12,-1.35 L12.05,-1.6 Q12.9,-4,15.5,-4 L15.65,-3.95 L15.75,-3.15 L15.75,-2.95 L16,-3.1 L18.5,-3 
L18.65,-2.85 L18.75,-2.05 Q18.75,-0.8,18.55,-1.1 Q18.25,-0.75,17,-0.75 L15.85,-0.9 L15.5,-1.2 L15.1,0.05 L14.65,1.45 
L16.5,1.5 L16.65,1.55 L16.75,2.35 Q16.75,3.6,16.55,3.3 L15.5,3.75 L15.1,3.65 Q15.75,6.2,15.75,9.4 L15.65,11.95 
Q15.35,13.9,14.55,14.8 L15.5,15 L15.65,15.05 L15.75,15.85 Q15.75,17.1,15.55,16.8 L14.5,17.25 L13.6,16.95 
Q13.25,16.65,13.25,15.85 Q13.25,15.15,13.75,14.9 Q13.1,13.9,12.85,12 Q12.65,12.15,12.5,12.25 L11.6,11.8 L11.3,11.2 
Q10.4,10.95,10.25,10.25 L10.25,2.1 L8.05,2.4 L7.85,2.8 L7.2,3.05 L7,3 L6.55,4.05 L6.75,4.75 L6.4,5.35 
Q6.05,5.75,5.25,5.75 Q4.1,5.75,3.55,4.55 Q3.25,3.85,3.25,3.25 L3.3,2.95 L2.5,3.25 L1.6,2.95 Q1.25,2.65,1.25,1.85 
Q1.25,1.05,1.95,0.85 L3.5,1 L3.65,1.05 L3.75,1.4 L4.25,0.55 Q5.25,-0.85,5.25,-1.6 Q5.25,-2.05,3.75,-3.7 
Q2.25,-5.35,2.25,-6.5 L2.35,-6.6 L2.25,-7.05 Q2.25,-9,3.25,-9.2 L2.05,-10.75 L1.55,-11.6 L1.95,-12 L2.25,-12.75 
L1.4,-13.55 L2,-13.25 L2.75,-13.75 L2.95,-14 L3.25,-14.75 L3.2,-14.85 Q2.75,-15.45,2,-15.75 L1.3,-15.6 
Q1.3,-16.7,1.45,-17.05 L1.75,-17.6 Q1.8,-18.9,3,-19.75 L3.4,-19.25 L3.9,-19.75 L4.5,-19.25 Q5.45,-18.85,5.75,-18.25 
L5.75,-16.1 L5.9,-16.05 L6.7,-16.1 L6.4,-15.85 Q6.25,-15.6,6.25,-15.1 L6.3,-14.25 L6.3,-14.35 L7.2,-13.9 L7.5,-13.75 
L7.8,-13.9 L8.45,-14.5 L8.75,-15.25 L7.5,-16.25 L6.8,-16.1 L5.8,-18.65 Q5.25,-20.2,5.25,-21.35 L5.95,-22 L6.05,-22.1 
Q6.15,-22.05,6.3,-21.95 Q7.3,-21.15,7.75,-19.65 L8.65,-17.2 L8.95,-16.15 L11.55,-16.2 L12,-16.75 L12.3,-16.5 
L12.6,-16.25 L13,-16.25 L14,-15.4 L14.25,-14.1 L14.25,-13.95 L14.55,-13 L14.6,-12.7 M14.75,-22.15 
Q14.75,-20.9,14.55,-21.2 L13.5,-20.75 L12.6,-21.05 Q12.25,-21.35,12.25,-22.15 Q12.25,-22.95,12.95,-23.15 L14.5,-23 
L14.65,-22.95 L14.75,-22.15 M10.25,-13.6 L10.25,-12.55 L10.25,-10.7 L10.75,-11.65 L10.85,-13.6 L10.25,-13.6 
M6.65,-23.65 L6,-23.25 L5.35,-23.55 L6.2,-22.8 L6.65,-23.65 M5,-23.75 L4.8,-23.85 L4.8,-23.75 L4.75,-24.25 L3.1,-23.2 
L3.75,-22.8 Q3.8,-23.4,4.2,-23.6 L5,-23.75 M3.3,-19.1 L3.4,-19.25 M2.75,-18.1 Q2.75,-18.9,3.2,-19.1 L3.3,-19.1 
L4,-19.25 L4.75,-18.8 L4.5,-19.25 M4.75,-18.8 L5.25,-18.25 L4.95,-17.5 L4.75,-17.25 L4.8,-17.05 L5,-17 L5.15,-16.95 
L5.25,-16.45 L5.75,-16.1 M4.75,-17.25 L4,-16.75 L2.8,-17.35 L2.8,-17.25 L2.75,-18.1 L2.65,-17.3 Q2.65,-16.45,3.6,-15.4 
L3.85,-15.1 Q4.75,-14.25,6.1,-14 Q5.95,-13.75,5.95,-13.15 L6.05,-12.75 L6.9,-10.95 L7.05,-10.7 Q7.75,-9.5,8.4,-9.05 
Q8.2,-7.95,7.35,-7.35 L7.4,-7 L7.45,-6.75 L7.8,-6.5 L7.85,-6.45 L8.65,-6.3 L9.8,-6.5 L9.9,-9.95 L9.9,-10.3 L9.8,-14.1 
L9.4,-14.25 L9.55,-14.9 L8.95,-16.15 M0.9,-13.8 L0.85,-13.7 L1,-13.75 L0.9,-13.8 M4.1,-12.8 Q3.25,-12.95,2.8,-13.35 
L2.8,-13.25 L2.75,-13.75 M4.35,-12.8 L4.1,-12.8 Q3.75,-12.65,3.75,-10.45 L3.8,-8.35 Q3.95,-7.55,4.25,-7 
Q4.55,-6.5,5,-6.3 L5.25,-6.35 L5.75,-6.55 L5.85,-6.65 L5.95,-8.05 L5.95,-8.4 Q5.85,-10.1,4.85,-12.05 L4.35,-12.8 
L5.25,-12.75 L5.6,-12.75 L5.75,-12.75 L6.05,-12.75 M3.85,-15.1 L3.2,-14.85 M2.75,-18.1 Q2.1,-18.05,1.75,-17.6 
M5.9,-16.05 L6.4,-15.85 M7.2,-13.9 L7,-13.9 L7.6,-13.3 L7.75,-13.7 L7.8,-13.7 L7.85,-13.9 L7.8,-13.9 M7.6,-13.3 
L7.8,-13.05 L7.75,-13.3 L7.8,-13.7 M4.8,-17.05 L5.25,-16.45 M5.75,-12.75 L5.75,-11.95 L5.35,-11.75 L6.75,-9.5 
L6.25,-8.6 L5.95,-8.4 M6.25,-5.65 L6.15,-6.45 L6,-6.5 L5.75,-6.55 M7.05,-10.7 Q6.75,-9.7,6.75,-8.85 L6.85,-7.7 L7.4,-7 
M2.35,-6.6 L2.5,-7 L3.5,-7.25 L4.25,-7 M1.75,-1.55 Q1.25,-1.55,1.15,-1.7 L0.95,-2 L0.85,-2.6 L1.15,-3.05 L1.75,-3.4 
L2.65,-2.65 L2.45,-1.85 Q2.65,-1.55,1.75,-1.55 M-0.55,-0.35 L-0.3,-0.6 L0.5,-0.75 L1.05,-0.45 L1.05,-0.8 L0.95,-1.4 
L0.85,-1.5 Q-0.45,-1.65,-1.05,-1.15 L-0.95,-0.9 L-0.85,-0.75 L-0.55,-0.35 L-0.75,0.35 Q-0.75,1.6,-0.6,1.05 L-0.3,1.35 
L-0.45,1.35 Q-1.25,1.6,-1.25,2.35 Q-1.25,3.15,-0.9,3.45 L0,3.75 L1.05,3.3 Q1.25,3.6,1.25,2.35 L1.15,1.55 L1,1.5 
L0.95,1.5 L1.45,0.95 L1.75,0.25 L1.05,-0.45 M7.8,-6.5 L7.05,-5.25 L6.25,-5.65 L5.25,-6.35 M6.3,-4.1 
Q6.3,-4.85,7.2,-5.25 L8.1,-4.45 Q7.95,-3.95,7.2,-3.4 Q6.5,-3.6,6.3,-4.1 M8.85,-0.45 L7.95,0.5 Q7.25,-0.05,7,-0.7 
L7.95,-1.2 Q8.45,-1.05,8.85,-0.45 M8.85,-1.15 Q8.85,-1.7,9.2,-1.85 L9.8,-1.95 L10.65,-1.2 Q10.65,-0.5,9.8,-0.1 
L8.9,-0.55 L8.85,-1.15 M5.6,-12.75 L5.1,-12 L4.75,-12.35 L5.25,-12.75 M19.25,-6.25 L18.95,-5.5 Q18.55,-5,18,-4.75 
Q17.25,-5,16.8,-5.35 L16.75,-6.1 Q16.75,-6.9,17.2,-7.1 L18,-7.25 Q18.8,-6.9,19.25,-6.25 M12,-1.35 L12.7,-1.1 
Q14.25,-0.5,14.25,0.1 Q14.25,1.3,13.4,1.55 L11.95,1.85 Q12.75,2.3,12.9,3.45 L12.75,6.1 L12.75,6.35 L12.55,10.8 
L11.5,11.25 L11.3,11.2 M15.5,-1.2 L15.3,-1.35 L15.25,-2.1 Q15.25,-2.65,15.75,-2.95 M18.55,1 L17.85,1.35 
Q17.05,0.75,16.8,0 Q17.5,-0.5,18.7,-0.35 L18.95,0.5 L18.55,1 M7,3 L6.55,2.85 Q6.3,2.65,6.3,2.1 Q6.3,1.55,6.6,1.4 
L7.2,1.25 Q7.7,1.4,8.1,1.95 L8.05,2.4 M7.4,5.3 Q7.4,4.75,7.7,4.65 L8.3,4.55 Q8.85,4.75,9.2,5.25 L8.3,6.3 
Q7.75,6.15,7.45,5.85 L7.4,5.3 M1.55,5.3 Q1.55,4.75,1.9,4.65 L2.5,4.55 L3.4,5.25 Q3.4,5.95,2.5,6.3 L1.65,5.85 
Q1.55,6.2,1.55,5.3 M3.75,7.8 L3.5,8.6 L2.85,8.85 L1.95,7.85 Q1.95,7.3,2.25,7.15 L2.85,7.05 Q3.4,7.3,3.75,7.8 M1.4,8.35 
Q1,8.85,0.4,8.9 Q-0.4,8.3,-0.65,7.6 Q-0.1,7.05,1.25,7.2 L1.4,7.3 L1.5,7.9 Q1.5,8.9,1.4,8.35 M1.2,10.1 L1.1,10.75 
L0.35,11.05 L-0.25,10.8 L-0.5,10.05 Q-0.5,9.35,1.05,9.7 L1.2,10.1 M4.1,8.85 Q4.55,8.05,5.5,7.95 L5.3,7.7 L5.25,7.1 
Q5.25,6.9,5.55,6.65 Q5.85,6.4,6.1,6.3 L7,7.05 L7,7.85 L6.8,8 L6.1,8.15 L5.6,8.1 L5.95,8.5 Q5.95,8.85,5,9.6 
Q4.25,9.35,4.1,8.85 M1.3,14.2 Q1.2,14.55,1.2,13.65 Q1.2,13.1,1.5,12.95 L2.1,12.85 L3.05,13.65 L2.1,14.7 L1.3,14.2 
M3.75,21.7 Q3.75,21.15,4.05,21 L4.65,20.85 L5.6,21.55 L5.3,22.4 L4.65,22.65 L3.75,21.7 M9.75,19.85 
Q9.75,19.05,10.45,18.85 L12,19 L12.15,19.05 L12.25,19.85 Q12.25,21.1,12.05,20.8 L11,21.25 L10.1,20.95 
Q9.75,20.65,9.75,19.85 M18.55,13.5 L17.85,13.85 Q17.05,13.25,16.8,12.5 Q17.5,12,18.7,12.15 L18.95,13 L18.55,13.5 
M-9.4,-13.05 Q-9.75,-13.35,-9.75,-14.15 Q-9.75,-15.7,-7.5,-15 L-7.35,-14.95 L-7.25,-14.15 Q-7.25,-12.9,-7.45,-13.2 
L-8.5,-12.75 L-9.4,-13.05 M-6.75,-14.65 L-6.7,-15.05 L-6.75,-15.65 Q-6.75,-17.2,-4.5,-16.5 L-4.35,-16.45 L-4.25,-15.65 
L-4.25,-15.1 L-4.25,-14.65 Q-4.25,-13.4,-4.45,-13.7 L-5.5,-13.25 L-6.4,-13.55 Q-6.75,-13.85,-6.75,-14.65 M-4.85,-12.95 
L-4.75,-12.65 L-4,-12.5 L-3.85,-12.45 L-3.75,-11.65 Q-3.75,-10.4,-3.95,-10.7 L-5,-10.25 L-5.9,-10.55 L-6.05,-10.75 
L-6.9,-11.05 Q-7.25,-11.35,-7.25,-12.15 Q-7.25,-12.95,-6.55,-13.15 L-5,-13 L-4.85,-12.95 M-10.5,2.55 L-10.9,2 
L-11.25,0.55 L-11,-0.1 L-11.6,0.15 Q-12.5,-0.1,-12.5,-1.05 Q-12.05,-1.5,-11.1,-1.4 L-10.7,-0.8 L-9.2,-3.75 L-9.1,-4.5 
L-8.7,-4.55 L-6.6,-4.6 L-6.25,-4.55 L-6.25,-5.45 Q-4.95,-5.55,-4.25,-4.95 L-4,-5 L-3.85,-4.85 L-3.75,-4.15 L-3.6,-3.55 
Q-3.45,-2.5,-3.75,-0.9 L-3.95,3.8 L-5,4.25 L-5.25,4.2 L-5.25,5.55 L-5.7,5.8 L-6.25,6.15 L-6.25,6.35 L-5.5,6.5 
L-5.35,6.55 L-5.25,7.35 Q-5.25,8.6,-5.45,8.3 L-6.5,8.75 L-6.75,8.7 L-7,9.5 L-7.35,9.65 L-8.5,9.75 L-10.1,9.5 
L-10.25,7.6 L-10.25,7.2 L-11.1,7 L-11.25,5.5 L-10.5,2.55 L-9.25,-1.5 Q-7.6,-5.7,-7.3,-0.6 L-6.85,-0.85 
Q-6.35,-0.7,-5.95,-0.1 Q-5.95,0.5,-6.85,0.9 L-7.25,0.65 L-7.25,0.8 Q-6.75,1.35,-6.55,2.1 L-6.5,2.25 L-5.85,2.2 
L-6.3,1.7 Q-6.3,1.2,-5.8,1 L-5.25,0.95 L-5.25,0.6 Q-5.25,-0.1,-5.75,-0.6 L-6.25,-1.25 Q-6.05,-1.9,-4.85,-2.85 
Q-3.75,-3.75,-3.75,-4.05 L-3.75,-4.15 M-10.8,-5.4 L-11.05,-6.2 L-10.75,-6.9 L-10.15,-7 Q-9.8,-6.9,-9.2,-6.3 
Q-9.5,-5.65,-10.15,-5.25 L-10.8,-5.4 M-1.05,-6.65 L-0.15,-5.95 Q-0.15,-5.55,-1.05,-4.9 Q-1.75,-5.05,-1.95,-5.6 
L-1.65,-6.25 L-1.05,-6.65 M-5.75,-9.65 Q-5.75,-8.4,-5.95,-8.7 L-7,-8.25 L-7.9,-8.55 Q-8.25,-8.85,-8.25,-9.65 
Q-8.25,-11.2,-6,-10.5 L-5.85,-10.45 L-5.75,-9.65 M-6.6,-4.6 L-6.55,-4.35 L-4.25,-4.95 M-9.2,-3.75 L-8.75,-4.5 
L-8.7,-4.55 M-7.4,4.85 L-7.8,4.3 L-7.85,5.95 L-8.75,6.3 Q-9.45,5.6,-9.55,4.15 L-10.3,3.4 L-10,2.75 L-9.55,2.4 L-9.5,1.6 
Q-9.25,0.6,-8.2,0.95 Q-7.95,0.7,-7.95,0.15 L-7.7,0.35 L-7.75,-0.05 L-7.45,-0.5 L-7.3,-0.6 M-0.2,-2.15 
Q-0.6,-1.45,-1.3,-1.3 Q-2.2,-1.6,-2.35,-2.1 Q-1.85,-2.85,-0.45,-3 L-0.2,-2.15 M-0.85,-0.75 L-0.85,-0.35 
Q-0.85,0.5,-0.95,0.25 L-2,0.5 L-2.7,0.35 L-2.95,0.15 L-3.05,-0.4 Q-3.05,-0.9,-2.5,-1.1 L-1.05,-1.05 L-0.95,-0.9 
M-5.25,0.95 L-4.7,1.05 Q-4.55,0.85,-4.55,1.75 L-4.6,2.15 L-5.4,2.7 L-5.85,2.2 M-7.25,0.65 L-7.55,0.5 L-7.25,0.8 
M-7.4,4.85 L-7.5,5.3 L-7.5,5.4 L-7.1,5.45 L-7.35,4.85 L-7.4,4.85 M-6.5,2.25 L-6.3,4.4 L-6.5,4.65 L-7.2,4.9 L-7.35,4.85 
M-7.1,5.45 L-6.5,5.5 L-6.35,5.55 L-6.25,6.15 M-6.25,6.35 Q-6.25,7.1,-6.55,8 L-6.75,8.7 M-9.7,11.45 Q-9.6,11.5,-9.6,12.1 
Q-9.6,13.1,-9.7,12.5 Q-10,12.95,-10.65,13.1 Q-11.45,12.5,-11.7,11.75 Q-11.1,11.25,-9.8,11.4 L-9.7,11.45 M-3.05,8.15 
Q-3.05,8.4,-3.95,9.25 Q-4.55,9.1,-4.9,8.5 L-4.3,7.8 L-3.95,7.4 L-3.05,8.15 M-14.25,2.85 Q-14.25,4.1,-14.45,3.8 
L-15.5,4.25 L-16.4,3.95 Q-16.75,3.65,-16.75,2.85 Q-16.75,2.05,-16.05,1.85 L-14.5,2 L-14.35,2.05 Q-14.25,2.1,-14.25,2.85 
M-13.4,5.85 L-13.4,6 Q-13.4,7,-13.55,6.75 L-13.7,6.9 L-14.5,7.05 L-15.2,6.9 L-15.45,6.55 L-15.55,5.95 
Q-15.2,5.35,-14.25,5.3 L-14.7,4.55 Q-14.1,4.05,-12.8,4.2 L-12.55,5.05 L-12.95,5.55 L-13.4,5.85 M-7.25,17.6 L-7.5,18 
Q-7.75,18.3,-8.7,18.3 Q-9.75,18.3,-10.2,17.85 L-10.3,17.3 Q-10.3,16.8,-9.65,16.6 L-7.25,16.95 Q-7.2,14.15,-6.75,13 
Q-5.15,12.7,-4.35,13.3 Q-4.05,13.55,-3.9,13.95 Q-3.75,14.35,-3.75,16.65 L-3.8,19.5 Q-4.05,21.1,-5.25,23 L-6,23.25 
Q-6.95,22.3,-7.15,20.55 L-7.2,19.95 L-7.6,20.1 L-8.5,19.15 L-8.2,18.45 L-7.6,18.3 L-7.25,18.5 L-7.25,17.85 L-7.25,17.6 
L-7.05,17.35 L-7.2,16.95 L-7.25,16.95 M-7.5,14 L-8.3,14.35 Q-9.25,13.4,-9.25,12.6 Q-9.25,11.05,-8.3,11.05 
Q-7.4,11.05,-7.4,12.6 L-7.5,14 M-7.25,18.5 Q-6.8,18.8,-6.7,19.05 L-6.75,19.85 L-7.2,19.95 "/>
</g>
</svg>

