<?xml version="1.0" standalone="no"?>
<!DOCTYPE svg PUBLIC "-//W3C//DTD SVG 20010904//EN"
"http://www.w3.org/TR/2001/REC-SVG-20010904/DTD/svg10.dtd">
<svg viewBox="-5.75 -5.2 11.65 10.4"
xmlns="http://www.w3.org/2000/svg" xmlns:xlink="http://www.w3.org/1999/xlink">
<desc>Created by Action Script Viewer - http://www.buraks.com/asv</desc>
<g>
<path fill="none" stroke="#000000" stroke-width="0.01" stroke-opacity="1"
d="M3.55,-4.25 Q3.55,-3.65,2.75,-2.85 L0.75,-0.5 L0.55,-0.25 L2.15,-0.5 L3.3,-0.75 L4.8,-1.05 L5.6,-0.75 L5.8,-0.5 
L5.9,0 L5.6,0.8 L4.8,1.05 L3.3,0.75 L0.55,0.25 L1.55,1.5 L1.75,1.75 L2.7,2.75 L3.35,3.5 L3.55,4.2 L3.2,4.9 L2.45,5.2 
L1.95,5.05 L1.55,4.6 L1.1,3.25 L0.5,1.5 L0.1,0.5 L-0.3,1.5 L-0.9,3.25 L-1.35,4.6 L-1.75,5.05 L-2.25,5.2 
Q-2.7,5.2,-3,4.9 Q-3.35,4.65,-3.35,4.2 L-3.15,3.55 L-2.55,2.75 L-1.55,1.75 L-1.35,1.5 L-0.35,0.25 L-3,0.7 L-4.65,1.05 
L-5.45,0.8 L-5.75,0 L-5.65,-0.5 L-5.45,-0.75 L-4.65,-1.05 L-3.1,-0.75 L-2.1,-0.5 L-0.35,-0.25 L-0.5,-0.5 L-1.55,-1.75 
L-2.55,-2.8 L-3.15,-3.55 L-3.35,-4.25 Q-3.35,-4.65,-3,-4.9 L-2.25,-5.2 L-1.75,-5.05 L-1.35,-4.65 L-0.85,-3.05 L0.1,-0.5 
L1.05,-3.1 L1.55,-4.65 L1.95,-5.05 L2.45,-5.2 L3.2,-4.95 L3.55,-4.25 "/>
</g>
</svg>

