<?xml version="1.0" standalone="no"?>
<!DOCTYPE svg PUBLIC "-//W3C//DTD SVG 20010904//EN"
"http://www.w3.org/TR/2001/REC-SVG-20010904/DTD/svg10.dtd">
<svg viewBox="-34.3 -33.6 65 65"
xmlns="http://www.w3.org/2000/svg" xmlns:xlink="http://www.w3.org/1999/xlink">
<desc>Created by Action Script Viewer - http://www.buraks.com/asv</desc>
<g>
<path fill="none" stroke="#000000" stroke-width="0.01" stroke-opacity="1"
d="M-30.15,-17.1 L-31.65,-14.1 L-32.8,-11.05 L-33.65,-7.8 L-34.15,-4.4 L-34.3,-2 L-34.3,-0.1 L-34.15,2.35 L-33.65,5.65 
L-32.8,8.95 L-31.65,12.05 L-31.05,13.35 L-30.1,15.05 L-28.25,17.9 L-26.15,20.45 L-24.75,21.95 L-23.85,22.85 L-21.25,25 
L-18.4,26.95 L-16.55,28 L-15.4,28.55 L-12.35,29.75 L-9.1,30.65 L-5.7,31.2 L-2.65,31.4 L-0.9,31.4 L0.95,31.3 L4.35,30.9 
L7.7,30.1 L10.95,28.95 L12.95,28 L14.05,27.45 L15.2,26.75 L16.95,25.6 L19.65,23.45 L21.2,21.95 L22.1,21.05 L24.35,18.4 
L26,16 L26.35,15.45 L27.35,13.55 L27.95,12.4 L29.15,9.2 L30.05,5.85 L30.55,2.35 L30.7,-0.25 L30.7,-1.9 L30.55,-4.4 
L30.1,-7.75 L29.25,-11.1 L28,-14.3 L27.3,-15.8 L26.45,-17.35 L26,-18.1 L24.55,-20.2 L22.4,-22.8 L21.2,-24.1 
L20.05,-25.2 L17.35,-27.4 L15.25,-28.85 L14.45,-29.35 L12.7,-30.3 L11.4,-30.9 L8.3,-32.1 L4.95,-32.95 L1.55,-33.45 
L-0.9,-33.6 L-1.85,-33.6 L-1.85,-1.1 L-1.8,-1.15 L-1.8,-1.1 L-1.85,-1.1 L-2.35,-1.1 L-30.15,-17.1 L-28.25,-20 
L-26.1,-22.65 L-24.75,-24.1 L-23.75,-25 L-21.2,-27.15 L-2.35,-1.1 "/>
</g>
</svg>

