<?xml version="1.0" standalone="no"?>
<!DOCTYPE svg PUBLIC "-//W3C//DTD SVG 20010904//EN"
"http://www.w3.org/TR/2001/REC-SVG-20010904/DTD/svg10.dtd">
<svg viewBox="-16.75 -20.5 32.15 44.65"
xmlns="http://www.w3.org/2000/svg" xmlns:xlink="http://www.w3.org/1999/xlink">
<desc>Created by Action Script Viewer - http://www.buraks.com/asv</desc>
<g>
<path fill="none" stroke="#000000" stroke-width="0.01" stroke-opacity="1"
d="M4,-15 Q3.5,-16.7,3.5,-17.65 Q3.5,-19.7,4.75,-20.5 Q6.05,-19.45,6.35,-17.6 Q6.85,-15.1,7.5,-13.95 L6.8,-13.05 
Q6.4,-12.5,6,-12.5 Q4.75,-12.5,4,-15 M9.9,-11.2 L9.85,-10.55 L9,-10.3 L8.3,-10.85 Q7.95,-11.25,8.1,-11.9 L9.8,-11.65 
L9.9,-11.2 M7.35,-10.5 L7.75,-9.65 L7.4,-9.2 L6.85,-8.85 Q6.45,-9.05,6,-9.3 L6,-9.25 L5.95,-9.85 
Q5.95,-10.45,6.45,-10.55 L7.35,-10.5 M4.8,-3.35 L4.5,-3.8 L4.5,-5.25 Q4.5,-6.6,5.75,-7.5 L6.75,-6.4 L9.75,-4.45 
L10,-3.9 L9.65,-2.9 Q9.35,-2.65,8.45,-2.55 L8.5,-1.75 Q8.5,-0.35,7.4,0.55 Q6.6,1.25,6.35,2.2 L7.75,2.45 L7.5,1.35 
L7.55,0.5 L7.55,0.55 Q9.6,-1.2,10.5,1.4 Q11,2.85,11,5.1 L10.75,7.3 Q10.1,8.6,7.25,9.5 Q6.55,9.25,6.35,9.05 
Q6,8.7,6,7.85 Q6,7.2,7.25,6.3 L8.35,5.25 L7.1,5.1 Q6.7,5.5,5.5,5.5 L4.05,5.4 L3.55,5.25 L3.5,3.35 L3,3.7 L3,3.75 
L2.95,4.6 L2.1,4.9 L1.2,3.85 Q1.2,3.3,1.5,3.15 L1.95,3.1 L1.95,2.8 Q1.95,2.25,2.25,2.1 L2.85,1.95 L3.5,2.45 L3.6,1.05 
L3.2,1.25 L2.3,0.5 L3.05,-0.35 L3,-0.8 Q3,-1.55,4,-1.45 L3.5,-2.75 Q4.05,-3.25,4.8,-3.35 Q5.55,-2.5,7.5,-2.5 
L8.45,-2.55 M9.55,-7.4 L9.3,-6.55 L8.65,-6.3 L8,-6.5 Q7.75,-6.7,7.75,-7.3 Q7.75,-7.85,8.05,-8 L8.65,-8.1 L9.55,-7.4 
M4.8,-0.65 L5,-0.75 L4.9,-0.8 L4.8,-0.65 M14.5,-6.2 L14.6,-5.4 Q14.6,-4.15,14.4,-4.45 L13.35,-4 L12.45,-4.3 
Q12.1,-4.6,12.1,-5.4 L12.1,-5.55 L11.45,-5.8 Q11.1,-6.1,11.1,-6.9 Q11.1,-7.7,11.8,-7.9 L13.35,-7.75 L13.5,-7.7 
L13.6,-6.9 L13.6,-6.4 L14.35,-6.25 L14.5,-6.2 M14.9,-1.15 L15.05,-1.05 L15.15,-0.45 Q15.15,0.55,15.05,0 L14.05,0.6 
Q13.25,-0.05,13,-0.75 Q13.55,-1.25,14.9,-1.15 M14.45,1.6 L15.4,2.3 L15.1,3.15 L14.45,3.4 L13.55,2.45 
Q13.55,1.9,13.85,1.75 L14.45,1.6 M12.75,2.1 L11.9,2.3 L11,1.35 Q11,0.8,11.3,0.65 L11.9,0.5 L12.5,0.7 
Q12.8,0.85,12.8,1.4 L12.75,2.1 M7.75,2.45 L10.5,3.3 L10.75,3.85 L10.35,4.85 L8.5,5.25 L8.35,5.25 M13.8,5.25 L14.1,4.9 
L15.05,5.6 L14.1,6.7 L13.2,5.95 L13.8,5.25 M11,11.35 Q11,12.1,9.25,13.55 Q7.5,15,7.5,15.5 Q7.5,15.95,8.25,16.7 
Q9,17.45,9,17.85 L8.9,18.75 L8.75,19.25 L7.25,19.5 Q5.35,19.5,5,17.75 L5,15.85 L5.1,14.15 Q5.25,13.05,6.05,12.55 
Q3.8,12.6,3.2,11.9 L3,10.85 Q3,9.9,3.85,9.7 L9.75,10 L10.6,10.3 Q11,10.55,11,11.35 M7.1,5.1 L5.85,4.8 
Q4.15,4.4,3.8,4.05 L3.75,3.35 Q3.75,2.2,5.45,2.15 L6.35,2.2 M1.55,7.05 L1.5,7.85 L0.7,8.15 L0.05,7.9 
Q-0.15,7.7,-0.15,7.1 Q-0.15,6.55,0.15,6.4 L0.7,6.3 Q1.35,6.6,1.55,7.05 M-12.4,-13.7 L-12,-13.55 L-12,-13.7 L-11,-13.85 
L-11,-18.2 Q-8.5,-18.4,-8.25,-15.95 L-8.3,-13.75 L-8.25,-13.75 L-8.1,-13.7 L-8,-12.9 Q-8,-12.25,-8.45,-11.85 L-8,-11.5 
Q-7.75,-11.15,-7.75,-10.3 Q-7.75,-8.8,-8.65,-8.1 L-8.7,-7.45 L-9.75,-7 L-10,-7.05 L-10,-6.7 L-10.5,-6.45 L-11.25,-6 
L-11.7,-6.55 L-12.5,-6.25 Q-13.25,-6.5,-13.4,-6.65 L-13.55,-6.8 L-13.55,-5.4 Q-12.4,-5.05,-11.8,-4.3 L-12.15,-3.8 
L-12.6,-3.55 L-12.75,-3.6 L-12.4,-0.05 Q-10.6,2,-10.3,3.2 L-10.25,3.2 L-7.5,3.5 L-7.35,3.55 L-7.25,4.35 
Q-7.25,6.1,-8.25,9.1 L-8.25,9.2 L-8.05,9.15 L-4.55,9.05 L-5.4,8 L-6.25,7.8 L-6.95,7.3 L-7,6.6 Q-7.05,5.8,-6.75,4.9 
L-6.6,4.6 L-6.75,4.05 Q-7.3,1.2,-7.25,-1.85 Q-7.25,-3.75,-6,-4.75 Q-4.6,-4.2,-4.75,-2 Q-4.85,-0.3,-3,-0.75 
Q-2.4,-0.1,-2.3,1.3 L-2.25,2.55 L-1.8,2.3 L-0.85,3.05 L-1.8,4.2 L-2.15,4.05 L-1.75,5.35 Q-1.25,6.75,-1.25,7.35 
Q-1.25,8.85,-1.5,9.25 L-1.7,9.5 L-1.5,10.35 Q-1.5,10.95,-3,12.25 L-3.75,12.95 L-3.75,13.55 L-3.15,13.8 
Q-1,14.95,-1,16.1 Q-1,17.2,-3.6,19.55 L-3.75,20.05 L-3.85,22.4 L-4.1,22.55 L-4.9,22.65 L-5,23.55 
Q-5.25,24.15,-6.5,24.15 Q-7.45,24.15,-8.05,23.65 L-8.15,23.1 Q-8.45,23,-7.9,22.6 Q-7.35,22.15,-6.65,22.1 L-7.1,21.6 
L-7.3,21.85 L-7.6,22.3 Q-8.3,22.05,-8.45,21.6 L-8.5,20.7 L-8.35,20.3 L-9.2,18.85 L-9.2,18.7 L-10.2,17.85 L-10.3,17.25 
L-9.5,16.85 Q-10.3,16.45,-10.3,15.55 Q-9.8,15.05,-8.95,15.2 L-8.5,16.1 L-8.9,16.55 L-9.1,16.75 L-7.95,16.8 L-8.15,16.2 
Q-8.15,15.4,-7.25,14.9 L-8.5,11.5 L-8.45,11.3 L-8.9,10.85 L-8.95,10.9 L-8.95,10.95 Q-9.9,12.75,-11,12.75 L-13,12.6 
L-13,13.1 Q-13,14.35,-13.2,14.05 L-13.45,14.3 L-14.5,14.5 L-15.45,14.4 L-15.5,14.25 Q-15.85,14.05,-15.9,14 L-16,13.1 
Q-16,11.6,-13.7,12.15 L-13.75,11.1 L-13.6,9.95 L-13.75,10 L-13.85,10 L-13.9,10.9 L-14.5,11.1 L-15.05,10.6 L-15.05,10.1 
L-15.1,10.1 L-16,10 L-16.05,8.9 L-15.5,6.15 Q-16.25,5.95,-16.6,5.55 Q-16.75,6.1,-16.75,4.85 Q-16.75,4,-15.8,3.8 
L-15.2,3.7 L-15.05,3.45 L-15.05,2.1 Q-16.25,0.85,-16.25,-0.35 Q-16.25,-3.05,-14.8,-2.3 L-14.8,-3.8 L-14.8,-4.35 
L-15.75,-4.3 Q-16.3,-4.65,-16.3,-5.25 Q-15.65,-5.7,-14.8,-5.65 L-14.8,-6.1 Q-14.7,-7.4,-14.25,-8.05 L-13.75,-7.75 
L-13.75,-7.8 Q-13.75,-8.6,-13.4,-8.9 L-12.7,-9.15 L-12.8,-9.75 L-13.7,-10 L-13.75,-10 L-15.3,-10.1 L-15.95,-10.25 
L-15.95,-10.75 L-16.1,-10.85 L-16.25,-11.6 L-15.95,-11.75 L-16,-12.5 Q-16,-17.45,-13.75,-15.3 L-12.4,-13.7 L-11.7,-12.5 
L-9,-12.25 L-8.45,-11.85 M-3.05,-16.8 L-3.3,-16 Q-3.1,-15.75,-3.95,-15.75 L-4.6,-15.85 L-4.8,-16.2 L-4.9,-16.75 
L-4.55,-17.2 L-3.95,-17.55 L-3.05,-16.8 M-15.95,-11.75 Q-15.75,-11.9,-15.8,-12.15 L-15.75,-12.6 L-11.7,-12.5 
M-13.75,-7.75 L-13.55,-7.55 L-13.55,-6.8 M-12.7,-9.15 L-12.5,-9.25 L-11.35,-9.5 L-12.8,-9.75 M-12.75,-3.6 L-13.2,-3.85 
L-13.3,-1.05 L-13.3,1.25 Q-13.2,1.75,-13.25,2.45 L-13.3,3.2 L-13.3,3.6 L-13.3,3.8 Q-12.05,4.65,-12.05,5.05 
Q-12.05,5.45,-12.85,6.05 L-13.15,6.35 L-12.95,7.45 L-13,7.55 L-13.05,7.75 L-13.6,9.95 M-13.2,-3.85 L-13.4,-4.05 
L-13.55,-4.15 L-13.55,-1.3 L-13.3,-1.05 M-11.4,-2.3 Q-11,-3.1,-10.05,-3.2 L-9.6,-2.45 Q-9.8,-1.75,-10.5,-1.55 
Q-11.15,-1.8,-11.4,-2.3 M-13.7,-10 L-15.95,-10.75 M-3.85,-7.4 L-3.85,-6.55 L-4.7,-6.3 L-5.6,-7.3 Q-5.6,-7.85,-5.3,-8 
L-4.7,-8.1 L-3.85,-7.4 M-8.65,-8.1 L-8.7,-8.05 Q-9.25,-7.55,-11.7,-6.55 M-7.4,-0.55 Q-7.65,-0.05,-8.3,0.15 L-9.15,-0.2 
L-9.2,-0.8 Q-9.2,-1.4,-7.85,-1.4 L-7.4,-0.55 M-1.25,-2.65 Q-1.55,-2.05,-2.15,-1.55 L-3.05,-2.3 L-2.75,-3 L-2.15,-3.4 
L-1.25,-2.65 M-2.15,4.05 L-2.6,3.7 L-2.7,3.15 L-2.25,2.55 M-8.45,11.3 Q-8.35,10.55,-7.6,9.95 Q-6.9,10.85,-6.3,12.45 
L-5.65,14.45 L-5.6,14.5 L-5.6,13.6 L-5.65,11.95 L-5.6,11.5 L-5.5,11 Q-5.25,10,-4.7,9.55 L-3.75,10.3 L-3.75,12.95 
M-8.25,9.2 L-8.9,10.85 M-1.7,9.5 L-2.75,9.75 Q-3.75,9.75,-4.55,9.05 M-5.4,8 Q-6.15,6.75,-6.6,4.6 M-13.3,3.6 
L-13.35,3.55 L-13.35,3.75 L-13.3,3.8 M-12.4,-0.05 L-12.1,3.05 L-10.3,3.2 M-15.5,6.15 L-15.3,4.55 L-15.2,3.7 
M-13.05,7.75 L-13.55,7.7 L-13.45,9 L-13.85,9.75 L-13.85,10 M-13,12.6 L-13.6,12.5 L-13.7,12.15 M-3.75,13.55 L-3.75,17.15 
L-4.7,17.55 L-5.15,16.9 L-5.25,17 L-5.6,17.75 L-5.6,18 Q-3.9,17.85,-3.65,18.9 L-3.6,19.55 M-1.8,13.65 L-2.7,12.85 
Q-2.7,12.15,-1.8,11.75 L-0.85,12.5 L-1.8,13.65 M-9.5,16.85 L-9.1,16.75 "/>
</g>
</svg>

