<?xml version="1.0" standalone="no"?>
<!DOCTYPE svg PUBLIC "-//W3C//DTD SVG 20010904//EN"
"http://www.w3.org/TR/2001/REC-SVG-20010904/DTD/svg10.dtd">
<svg viewBox="-2.35 -33.6 32.9 32.6"
xmlns="http://www.w3.org/2000/svg" xmlns:xlink="http://www.w3.org/1999/xlink">
<desc>Created by Action Script Viewer - http://www.buraks.com/asv</desc>
<g>
<path fill="none" stroke="#000000" stroke-width="0.01" stroke-opacity="1"
d="M1.55,-33.45 L-0.9,-33.6 L-1.85,-33.6 L-1.85,-1.1 L-1.8,-1.15 L-1.8,-1.1 L30.55,-4.4 L30.1,-7.75 L29.25,-11.1 
L28,-14.3 L27.3,-15.8 L26.45,-17.35 L26,-18.1 L24.55,-20.2 L22.4,-22.8 L21.2,-24.1 L20.05,-25.2 L17.35,-27.4 
L15.25,-28.85 L14.45,-29.35 L12.7,-30.3 L11.4,-30.9 L8.3,-32.1 L4.95,-32.95 L1.55,-33.45 M-2.35,-1.1 L-2.35,-1 L-1.8,-1 
L-1.8,-1.1 L-1.85,-1.1 L-2.35,-1.1 "/>
</g>
</svg>

